<svg xmlns="http://www.w3.org/2000/svg" version="1.1" xmlns:xlink="http://www.w3.org/1999/xlink" width="512" height="512" x="0" y="0" viewBox="0 0 512 512" style="enable-background:new 0 0 512 512" xml:space="preserve" class=""><g><path fill="#3a3aeb" d="M512 256c0 141.379-114.621 256-256 256-2.379 0-4.738-.031-7.102-.102-3.699-.097-7.378-.277-11.039-.539-.53-.03-1.07-.07-1.597-.109a2.46 2.46 0 0 0-.293-.02 256.639 256.639 0 0 1-22.547-2.77c-1.121-.19-2.242-.382-3.352-.589-1.73-.312-3.449-.64-5.172-.992C88 483.21 0 379.879 0 256 0 114.621 114.621 0 256 0c116.922 0 215.531 78.379 246.16 185.469 2.48 8.66 4.512 17.5 6.07 26.511.29 1.66.551 3.32.81 5 0 .02.01.051.01.07.641 4.2 1.188 8.438 1.622 12.712.027.34.066.668.098 1.008.23 2.351.43 4.718.59 7.09.421 5.992.64 12.05.64 18.14zm0 0" opacity="1" data-original="#3a3aeb"></path><path fill="#3233c4" d="M512 256c0 141.379-114.621 256-256 256-2.379 0-4.738-.031-7.102-.102-3.699-.097-7.378-.277-11.039-.539L111 384.5l290-257 110.36 110.36c.421 5.992.64 12.05.64 18.14zm0 0" opacity="1" data-original="#3233c4"></path><path fill="#ffbf00" d="M111 127.5h290v257H111zm0 0" opacity="1" data-original="#ffbf00"></path><path fill="#ebb200" d="M256 127.5h145v257H256zm0 0" opacity="1" data-original="#ebb200"></path><path fill="#ffffff" d="M141 127.5h260v227H141zm0 0" opacity="1" data-original="#ffffff"></path><path fill="#ebf6fc" d="M256 127.5h145v227H256zm0 0" opacity="1" data-original="#ebf6fc"></path><path fill="#ff475a" d="M161.137 286.582h40v30h-40zm0 0" opacity="1" data-original="#ff475a"></path><path fill="#ffbf00" d="M221.137 256.582h40v60h-40zm0 0" opacity="1" data-original="#ffbf00"></path><path fill="#ebb200" d="M256 256.578h5.129v60H256zm0 0" opacity="1" data-original="#ebb200"></path><path fill="#f03049" d="M281.137 236.582h40v80h-40zm0 0" opacity="1" data-original="#f03049"></path><path fill="#3233c4" d="M341.137 196.582h40v120h-40zm0 0" opacity="1" data-original="#3233c4"></path><path fill="#00ee84" d="m381.262 151.527-24.602-2.172 3.559 7-198.801 101.106 4.746 9.332 198.8-101.106 3.563 7zm0 0" opacity="1" data-original="#00ee84"></path><path fill="#00cd71" d="m381.262 151.531-12.73 21.16-3.563-7L256 221.101V209.36l104.219-53.007-3.559-7zm0 0" opacity="1" data-original="#00cd71"></path></g></svg>