<svg xmlns="http://www.w3.org/2000/svg" version="1.1" xmlns:xlink="http://www.w3.org/1999/xlink" width="512" height="512" x="0" y="0" viewBox="0 0 512 512" style="enable-background:new 0 0 512 512" xml:space="preserve" class=""><g><path fill="#cc3366" d="M260 251c0 5.3-8 5.3-8 0v-19.4c0-5.3 8-5.3 8 0zm-75.1-12.2c-2.7 4.5-9.6.5-6.9-4l9.9-16.8c2.6-4.5 9.5-.5 6.9 4zm149.1-4c2.7 4.5-4.2 8.6-6.9 4l-9.9-16.8c-2.6-4.5 4.2-8.6 6.9-4zm-19.4-33c2.7 4.5-4.2 8.6-6.9 4.1l-9.9-16.8c-2.6-4.5 4.2-8.6 6.9-4.1zm-110.3 4c-2.7 4.5-9.6.5-6.9-4.1l9.9-16.8c2.7-4.5 9.6-.5 6.9 4.1zm55.7 7c0 5.2-8 5.2-8 0v-19.5c0-5.2 8-5.2 8 0z" opacity="1" data-original="#cc3366" class=""></path><path fill="#cc9933" fill-rule="evenodd" d="M198.1 29H314c7.9 0 14.3 6.5 14.3 14.4v107.8c0 7.9-6.5 14.3-14.3 14.3H198.1c-7.9 0-14.4-6.5-14.4-14.3V43.4c0-7.9 6.5-14.4 14.4-14.4z" clip-rule="evenodd" opacity="1" data-original="#cc9933" class=""></path><path fill="#dab46a" fill-rule="evenodd" d="M198 29h116c7.9 0 14.3 6.5 14.3 14.4V135c-40 2-85.8-22.1-116.7-65.9-8.7-12.3-15.6-25.2-20.6-38.2 2.1-1.2 4.5-1.9 7-1.9z" clip-rule="evenodd" opacity="1" data-original="#dab46a" class=""></path><path fill="#cc3366" fill-rule="evenodd" d="M232.2 29h47.6v62.9l-23.7-13.4-23.9 13.4z" clip-rule="evenodd" opacity="1" data-original="#cc3366" class=""></path><path fill="#ffffff" d="M212.7 139.2c-5.3 0-5.3-8 0-8h30.4c5.2 0 5.2 8 0 8zm0-14.7c-5.3 0-5.3-8 0-8h15.2c5.3 0 5.3 8 0 8z" opacity="1" data-original="#ffffff"></path><g fill-rule="evenodd" clip-rule="evenodd"><path fill="#ff9aa2" d="M126.1 221c-23.2 0-42.2 19-42.2 42.1v9.1c0 23.2 19 42.1 42.2 42.1 23.2 0 42.1-19 42.1-42.1v-9.1c0-23.1-19-42.1-42.1-42.1z" opacity="1" data-original="#ff9aa2"></path><path fill="#ffb7b2" d="M126.1 221c-9.9 0-19 3.5-26.2 9.2-1.7 4.6-2.6 9.5-2.6 14.7v9.1c0 23.2 18.9 42.1 42.1 42.1 9.9 0 19-3.5 26.2-9.2 1.7-4.6 2.7-9.5 2.7-14.7v-9.1c-.1-23.1-19.1-42.1-42.2-42.1z" opacity="1" data-original="#ffb7b2"></path><path fill="#ff9aa2" d="M385.9 221c-23.2 0-42.2 19-42.2 42.1v9.1c0 23.2 19 42.1 42.2 42.1 23.2 0 42.1-19 42.1-42.1v-9.1c.1-23.1-18.9-42.1-42.1-42.1z" opacity="1" data-original="#ff9aa2"></path><path fill="#ffb7b2" d="M385.9 221c-9.9 0-19 3.5-26.2 9.2-1.7 4.6-2.6 9.5-2.6 14.7v9.1c0 23.2 18.9 42.1 42.1 42.1 9.9 0 19-3.5 26.2-9.2 1.7-4.6 2.7-9.5 2.7-14.7v-9.1c0-23.1-19-42.1-42.2-42.1z" opacity="1" data-original="#ffb7b2"></path><path fill="#ff9aa2" d="M256.7 273.1c-23.2 0-42.1 19-42.1 42.2v9.1c0 23.2 19 42.1 42.1 42.1 23.2 0 42.2-19 42.2-42.1v-9.1c0-23.2-19-42.2-42.2-42.2z" opacity="1" data-original="#ff9aa2"></path><path fill="#ffb7b2" d="M256.7 273.1c-9.9 0-19 3.5-26.2 9.2-1.7 4.6-2.7 9.5-2.7 14.7v9.1c0 23.2 19 42.1 42.2 42.1 9.9 0 19-3.4 26.2-9.2 1.7-4.6 2.7-9.5 2.7-14.7v-9.1c0-23.1-19-42.1-42.2-42.1z" opacity="1" data-original="#ffb7b2"></path><path fill="#bac0f0" d="M151.2 308.5H101c-27 0-49.2 22.1-49.2 49.2v51.6c0 9.8 8 17.7 17.7 17.7h113.1c9.8 0 17.7-8 17.7-17.7v-51.6c0-27.1-22.1-49.2-49.1-49.2z" opacity="1" data-original="#bac0f0"></path><path fill="#dfe2f3" d="M151.2 308.5H101c-5.3 0-10.4.9-15.2 2.4 20 38 62.6 74 114.5 96.6v-49.9c0-27-22.1-49.1-49.1-49.1z" opacity="1" data-original="#dfe2f3"></path><path fill="#ffcc00" d="M411 308.5h-50.2c-27 0-49.2 22.1-49.2 49.2v51.6c0 9.8 8 17.7 17.7 17.7h113.1c9.8 0 17.7-8 17.7-17.7v-51.6c.1-27.1-22.1-49.2-49.1-49.2z" opacity="1" data-original="#ffcc00"></path><path fill="#ffec91" d="M411 308.5h-50.2c-5.3 0-10.4.9-15.2 2.4 20 38 62.6 74 114.5 96.6v-49.9c.1-27-22.1-49.1-49.1-49.1z" opacity="1" data-original="#ffec91"></path><path fill="#9bd0b6" d="M281.8 360.6h-50.2c-27 0-49.2 22.1-49.2 49.2v51.6c0 9.7 8 17.7 17.7 17.7h113.1c9.7 0 17.7-8 17.7-17.7v-51.6c.1-27.1-22-49.2-49.1-49.2z" opacity="1" data-original="#9bd0b6"></path><path fill="#b5ead7" d="M281.8 360.6h-50.2c-5.3 0-10.4.9-15.1 2.4 20 38 62.6 74 114.5 96.6v-49.9c0-27-22.1-49.1-49.2-49.1z" opacity="1" data-original="#b5ead7"></path></g><path fill="#ffffff" d="M425.5 354.3c0-2.2 1.8-4 4-4s4 1.8 4 4v72.6c0 2.2-1.8 4-4 4s-4-1.8-4-4zm-259.9 0c0-2.2 1.8-4 4-4s4 1.8 4 4v72.6c0 2.2-1.8 4-4 4s-4-1.8-4-4zm-87.1 0c0-2.2 1.8-4 4-4s4 1.8 4 4v72.6c0 2.2-1.8 4-4 4s-4-1.8-4-4zm217.8 52.1c0-2.2 1.8-4 4-4s4 1.8 4 4V479c0 2.2-1.8 4-4 4s-4-1.8-4-4zm-87.1 0c0-2.2 1.8-4 4-4s4 1.8 4 4V479c0 2.2-1.8 4-4 4s-4-1.8-4-4zm129.2-52.1c0-2.2 1.8-4 4-4s4 1.8 4 4v72.6c0 2.2-1.8 4-4 4s-4-1.8-4-4z" opacity="1" data-original="#ffffff"></path></g></svg>