<svg xmlns="http://www.w3.org/2000/svg" version="1.1" xmlns:xlink="http://www.w3.org/1999/xlink" width="512" height="512" x="0" y="0" viewBox="0 0 256 256" style="enable-background:new 0 0 512 512" xml:space="preserve" class=""><g><path fill="#f1f2f2" d="M212.508 245.741H59.639c-5.523 0-10-4.477-10-10V20.259c0-5.523 4.477-10 10-10h152.869c5.523 0 10 4.477 10 10v215.482c0 5.523-4.477 10-10 10z" opacity="1" data-original="#f1f2f2" class=""></path><path fill="#ffffff" d="M128 18.259h-.333a2 2 0 0 1 0-4H128a2 2 0 0 1 0 4zm-8.333 0h-50a2 2 0 0 1 0-4h50a2 2 0 0 1 0 4z" opacity="1" data-original="#ffffff"></path><path fill="#e6e7e8" d="M212.508 10.259v215.482c0 5.523-4.477 10-10 10H49.639c0 5.523 4.477 10 10 10h152.869c5.523 0 10-4.477 10-10V20.259c0-5.523-4.477-10-10-10z" opacity="1" data-original="#e6e7e8" class=""></path><path fill="#d1d3d4" d="M216.618 11.149a9.95 9.95 0 0 1 .891 4.109V230.74c0 5.523-4.477 10-10 10H54.639a9.939 9.939 0 0 1-4.11-.891c1.569 3.471 5.053 5.891 9.11 5.891h152.869c5.523 0 10-4.477 10-10V20.259c0-4.056-2.42-7.541-5.89-9.11z" opacity="1" data-original="#d1d3d4" class=""></path><path fill="#939598" d="M58.25 44.541H41.027a7.535 7.535 0 1 1 0-15.07H58.25a7.536 7.536 0 0 1 0 15.07z" opacity="1" data-original="#939598"></path><path fill="#808285" d="M60.456 29.801a7.535 7.535 0 0 1-7.205 9.74H36.027a7.5 7.5 0 0 1-2.205-.33 7.537 7.537 0 0 0 7.205 5.33H58.25a7.536 7.536 0 0 0 2.206-14.74z" opacity="1" data-original="#808285"></path><path fill="#939598" d="M58.25 75.121H41.027a7.535 7.535 0 1 1 0-15.07H58.25a7.536 7.536 0 0 1 0 15.07z" opacity="1" data-original="#939598"></path><path fill="#939598" d="M58.25 75.121H41.027a7.535 7.535 0 1 1 0-15.07H58.25a7.536 7.536 0 0 1 0 15.07z" opacity="1" data-original="#939598"></path><path fill="#808285" d="M60.456 60.381a7.535 7.535 0 0 1-7.205 9.74H36.027a7.5 7.5 0 0 1-2.205-.33 7.537 7.537 0 0 0 7.205 5.33H58.25a7.536 7.536 0 0 0 2.206-14.74z" opacity="1" data-original="#808285"></path><path fill="#939598" d="M58.25 105.702H41.027a7.535 7.535 0 1 1 0-15.07H58.25a7.535 7.535 0 1 1 0 15.07z" opacity="1" data-original="#939598"></path><path fill="#808285" d="M60.456 90.961a7.535 7.535 0 0 1-7.205 9.74H36.027a7.5 7.5 0 0 1-2.205-.33 7.537 7.537 0 0 0 7.205 5.33H58.25a7.536 7.536 0 0 0 2.206-14.74z" opacity="1" data-original="#808285"></path><path fill="#939598" d="M58.25 136.282H41.027a7.536 7.536 0 0 1 0-15.07H58.25a7.536 7.536 0 0 1 0 15.07z" opacity="1" data-original="#939598"></path><path fill="#808285" d="M60.456 121.541a7.535 7.535 0 0 1-7.205 9.74H36.027a7.5 7.5 0 0 1-2.205-.33 7.537 7.537 0 0 0 7.205 5.33H58.25a7.536 7.536 0 0 0 2.206-14.74z" opacity="1" data-original="#808285"></path><path fill="#939598" d="M58.25 166.862H41.027a7.535 7.535 0 1 1 0-15.07H58.25a7.535 7.535 0 1 1 0 15.07z" opacity="1" data-original="#939598"></path><path fill="#808285" d="M60.456 152.122a7.535 7.535 0 0 1-7.205 9.74H36.027a7.5 7.5 0 0 1-2.205-.33 7.537 7.537 0 0 0 7.205 5.33H58.25a7.536 7.536 0 0 0 2.206-14.74z" opacity="1" data-original="#808285"></path><path fill="#939598" d="M58.25 197.442H41.027a7.536 7.536 0 0 1 0-15.07H58.25a7.535 7.535 0 1 1 0 15.07z" opacity="1" data-original="#939598"></path><path fill="#808285" d="M60.456 182.702a7.535 7.535 0 0 1-7.205 9.74H36.027a7.5 7.5 0 0 1-2.205-.33 7.537 7.537 0 0 0 7.205 5.33H58.25a7.536 7.536 0 0 0 2.206-14.74z" opacity="1" data-original="#808285"></path><path fill="#939598" d="M58.25 226.529H41.027a7.535 7.535 0 1 1 0-15.07H58.25a7.535 7.535 0 1 1 0 15.07z" opacity="1" data-original="#939598"></path><path fill="#808285" d="M60.456 211.789a7.535 7.535 0 0 1-7.205 9.74H36.027a7.5 7.5 0 0 1-2.205-.33 7.537 7.537 0 0 0 7.205 5.33H58.25a7.536 7.536 0 0 0 2.206-14.74z" opacity="1" data-original="#808285"></path><path fill="#b171f4" d="M75.594 124.583h121.59v31.25H75.594z" opacity="1" data-original="#b171f4" class=""></path><path fill="#414042" d="M197.185 122.583H75.595a2 2 0 0 0-2 2v95a2 2 0 0 0 2 2h121.59a2 2 0 0 0 2-2v-95a2 2 0 0 0-2-2zm-62.795 52.5H77.595v-17.25h56.795zm4-17.25h56.795v17.25H138.39zm-60.795 21.25h56.795v17.25H77.595zm60.795 0h56.795v17.25H138.39zm56.795-25.25H138.39v-27.25h56.795zm-60.795-27.25v27.25H77.595v-27.25zm-56.795 73.75h56.795v17.25H77.595zm60.795 17.25v-17.25h56.795v17.25z" opacity="1" data-original="#414042" class=""></path><circle cx="136.389" cy="71.75" r="40" fill="#ef7816" opacity="1" data-original="#ef7816" class=""></circle><circle cx="136.389" cy="71.75" r="29.879" fill="#ffc91d" opacity="1" data-original="#ffc91d"></circle><path fill="#ffa91a" d="M154.863 48.276a29.743 29.743 0 0 1 6.405 18.474c0 16.501-13.377 29.879-29.879 29.879a29.745 29.745 0 0 1-18.474-6.405c5.471 6.942 13.949 11.405 23.474 11.405 16.502 0 29.879-13.377 29.879-29.879 0-9.525-4.463-18.003-11.405-23.474z" opacity="1" data-original="#ffa91a"></path><path fill="#995222" d="M139.405 68.242h-1.016V57.16h1.016a5.546 5.546 0 0 1 5.541 5.541 2 2 0 0 0 4 0c0-5.261-4.28-9.541-9.541-9.541h-1.016v-1.017a2 2 0 0 0-4 0v1.017h-1.017c-5.261 0-9.541 4.28-9.541 9.541s4.28 9.541 9.541 9.541h1.017V86.34h-1.017a5.546 5.546 0 0 1-5.541-5.541 2 2 0 0 0-4 0c0 5.261 4.28 9.541 9.541 9.541h1.017v1.017a2 2 0 0 0 4 0V90.34h1.016c5.261 0 9.541-4.28 9.541-9.541v-3.017c0-5.261-4.28-9.54-9.541-9.54zm-6.032 0c-3.056 0-5.541-2.485-5.541-5.541s2.485-5.541 5.541-5.541h1.017v11.082zm11.573 12.557a5.546 5.546 0 0 1-5.541 5.541h-1.016V72.242h1.016a5.546 5.546 0 0 1 5.541 5.54z" opacity="1" data-original="#995222"></path></g></svg>