<svg xmlns="http://www.w3.org/2000/svg" version="1.1" xmlns:xlink="http://www.w3.org/1999/xlink" width="512" height="512" x="0" y="0" viewBox="0 0 468 468" style="enable-background:new 0 0 512 512" xml:space="preserve" class=""><g><path fill="#ac9ef9" d="M448 402.71H20c-11.046 0-20 8.954-20 20v1.465C0 448.379 19.621 468 43.826 468h380.349C448.379 468 468 448.379 468 424.174v-1.465c0-11.045-8.954-19.999-20-19.999z" opacity="1" data-original="#ac9ef9"></path><path fill="#6262f4" d="M423.476 117.623H44.524c-11.046 0-20 8.954-20 20V402.71h418.952V137.622c0-11.045-8.954-19.999-20-19.999z" opacity="1" data-original="#6262f4"></path><path fill="#ffffff" d="M48 141.496h372V402.71H48z" opacity="1" data-original="#ffffff"></path><path fill="#6262f4" d="M274.201 435.355h-80.402c-8.837 0-16-7.163-16-16V402.71h112.402v16.645c0 8.837-7.163 16-16 16z" opacity="1" data-original="#6262f4"></path><path fill="#fdbf38" d="M314.441 305.165v32.698c0 14.108 34.351 25.546 76.724 25.546s76.724-11.437 76.724-25.546v-32.698z" opacity="1" data-original="#fdbf38"></path><ellipse cx="391.165" cy="305.165" fill="#ffd085" rx="76.724" ry="22.48" opacity="1" data-original="#ffd085"></ellipse><path fill="#fdbf38" d="M314.441 242.834v32.698c0 14.108 34.351 25.546 76.724 25.546s76.724-11.437 76.724-25.546v-32.698z" opacity="1" data-original="#fdbf38"></path><ellipse cx="391.165" cy="242.834" fill="#ffd085" rx="76.724" ry="22.48" opacity="1" data-original="#ffd085"></ellipse><path fill="#fdbf38" d="M314.441 180.503v32.698c0 14.108 34.351 25.546 76.724 25.546s76.724-11.437 76.724-25.546v-32.698z" opacity="1" data-original="#fdbf38"></path><ellipse cx="391.165" cy="180.503" fill="#ffd085" rx="76.724" ry="22.48" opacity="1" data-original="#ffd085"></ellipse><ellipse cx="91.156" cy="262.969" fill="#e0e9ef" rx="91.046" ry="90.942" opacity="1" data-original="#e0e9ef" class=""></ellipse><path fill="#35c9ad" d="M106.624 218.415h30.935v88.858h-30.935z" opacity="1" data-original="#35c9ad"></path><path fill="#fdbf38" d="M75.689 238.851h30.935v68.421H75.689z" opacity="1" data-original="#fdbf38"></path><path fill="#f761a6" d="M44.754 259.287h30.935v47.985H44.754z" opacity="1" data-original="#f761a6"></path><ellipse cx="234" cy="85.171" fill="#e0e9ef" rx="85.268" ry="85.171" opacity="1" data-original="#e0e9ef" class=""></ellipse><path fill="#ac9ef9" d="M269.682 137.416h-71.365v-36.887c0-7.732 6.268-14 14-14h43.365c7.732 0 14 6.268 14 14z" opacity="1" data-original="#ac9ef9"></path><circle cx="234" cy="45.673" r="19.415" fill="#6262f4" opacity="1" data-original="#6262f4"></circle></g></svg>