<svg xmlns="http://www.w3.org/2000/svg" version="1.1" xmlns:xlink="http://www.w3.org/1999/xlink" width="512" height="512" x="0" y="0" viewBox="0 0 48 48" style="enable-background:new 0 0 512 512" xml:space="preserve" class=""><g transform="matrix(-1,2.4492935982947064e-16,2.4492935982947064e-16,1,47.9993012715131,-7.105427357601002e-15)"><path fill="#54bbff" d="m.88 16.598 9.992 9.992a2.98 2.98 0 1 0 4.215-4.216l-3.037-3.037c20.384-1.003 33.639 12.679 33.762 26.703.004.507.716.61.874.144 4.922-14.579-4.03-32.89-27.427-36.201a116.18 116.18 0 0 0-6.868-.681l2.697-2.697a2.98 2.98 0 1 0-4.215-4.215L.88 12.383a2.98 2.98 0 0 0 0 4.215z" opacity="1" data-original="#54bbff" class=""></path></g></svg>