<svg xmlns="http://www.w3.org/2000/svg" version="1.1" xmlns:xlink="http://www.w3.org/1999/xlink" width="512" height="512" x="0" y="0" viewBox="0 0 512 512" style="enable-background:new 0 0 512 512" xml:space="preserve" class=""><g><path d="M480 127.992H32c-17.632 0-32 14.368-32 32v288c0 17.664 14.368 32 32 32h448c17.664 0 32-14.336 32-32v-288c0-17.632-14.336-32-32-32z" style="" fill="#2196f3" data-original="#2196f3"></path><path d="M0 191.992h512v96H0z" style="" fill="#455a64" data-original="#455a64"></path><path d="M144 383.992H80c-8.832 0-16-7.168-16-16s7.168-16 16-16h64c8.832 0 16 7.168 16 16s-7.168 16-16 16zM512 286.264V159.992c0-17.632-14.336-32-32-32H224v32c0 100.224 38.144 161.248 136.192 217.696 7.232 4.128 15.488 6.304 23.808 6.304s16.576-2.176 23.904-6.368c48.512-27.872 82.304-56.96 104.096-91.36z" style="" fill="#fafafa" data-original="#fafafa"></path><path d="m502.304 81.304-112-48a16.058 16.058 0 0 0-12.64 0l-112 48C259.808 83.8 256 89.592 256 95.992v64c0 88.032 32.544 139.488 120.032 189.888 2.464 1.408 5.216 2.112 7.968 2.112s5.504-.704 7.968-2.112C479.456 299.608 512 248.152 512 159.992v-64c0-6.4-3.808-12.192-9.696-14.688z" style="" fill="#009688" data-original="#009688"></path><path d="M368 239.992h-.672a16.058 16.058 0 0 1-12.64-7.104l-32-48c-4.896-7.36-2.912-17.28 4.448-22.176 7.296-4.864 17.248-2.944 22.176 4.448l19.872 29.792 50.304-62.912c5.536-6.88 15.616-7.968 22.496-2.496 6.912 5.536 8 15.584 2.496 22.496l-64 80a16.131 16.131 0 0 1-12.48 5.952z" style="" fill="#fafafa" data-original="#fafafa"></path></g></svg>