<svg xmlns="http://www.w3.org/2000/svg" version="1.1" xmlns:xlink="http://www.w3.org/1999/xlink" width="512" height="512" x="0" y="0" viewBox="0 0 512 512" style="enable-background:new 0 0 512 512" xml:space="preserve" class=""><g><g fill-rule="evenodd" clip-rule="evenodd"><path fill="#eceff1" d="M80.507 16.003h296.652c2.665 0 4.958.95 6.842 2.835l54.334 54.333c1.884 1.884 2.834 4.178 2.834 6.842V486.32c0 5.33-4.347 9.677-9.677 9.677H80.507c-5.33 0-9.677-4.347-9.677-9.677V25.681c0-5.33 4.347-9.678 9.677-9.678z" opacity="1" data-original="#eceff1"></path><path fill="#d1d1d6" d="M80.507 16.003H98.21v479.993H80.507c-5.33 0-9.677-4.347-9.677-9.677V25.681c0-5.33 4.347-9.678 9.677-9.678z" opacity="1" data-original="#d1d1d6"></path><path fill="#a79ba7" d="M381.168 16.842a9.708 9.708 0 0 1 2.834 1.995l54.334 54.333a9.72 9.72 0 0 1 1.996 2.834h-54.325a4.848 4.848 0 0 1-4.838-4.838V16.842zM254.943 364.132a8 8 0 0 1 0-16h92.279a8 8 0 0 1 0 16zm0-273.331a8 8 0 0 1 0-16h92.279a8 8 0 0 1 0 16zm0 33.065a8 8 0 0 1 0-16h136.031a8 8 0 0 1 0 16zm0 93.599a8 8 0 0 1 0-16h92.279a8 8 0 0 1 0 16zm0 33.066a8 8 0 0 1 0-16h136.031a8 8 0 0 1 0 16zm0 146.666a8 8 0 0 1 0-16h136.031a8 8 0 0 1 0 16z" opacity="1" data-original="#a79ba7"></path><path fill="#fe646f" d="m199.99 404.302-29.192 24.208 15.656 36.349c.503 1.168 2.108 1.287 2.779.207l10.106-16.286 18.776 3.846c1.247.255 2.262-.992 1.758-2.161z" opacity="1" data-original="#fe646f"></path><path fill="#fd4755" d="m199.99 404.302-3.86 3.201 18.504 42.963a1.549 1.549 0 0 1-.093 1.429l3.573.732c1.247.255 2.262-.992 1.758-2.161zm-14.491 58.34 9.192-14.813 4.648.952-10.106 16.285c-.67 1.08-2.275.961-2.778-.207z" opacity="1" data-original="#fd4755"></path><path fill="#fe646f" d="m159.833 420.143-20.989 45.083c-.536 1.153-2.145 1.225-2.783.126l-9.63-16.571-18.881 3.299c-1.254.219-2.233-1.057-1.695-2.212l20.76-44.59z" opacity="1" data-original="#fe646f"></path><path fill="#fd4755" d="m159.833 420.143-20.989 45.083c-.537 1.153-2.145 1.225-2.783.126l-9.63-16.571-18.881 3.299c-1.254.219-2.232-1.057-1.695-2.212l1.276-2.741 16.648-2.909 9.629 16.571c.639 1.099 2.247 1.027 2.784-.126l19.688-42.288z" opacity="1" data-original="#fd4755"></path><path fill="#ffe177" d="M170.892 311.199c12.551 9.394 9.704 8.358 25.357 9.229 6.012.334 10.896 4.432 12.269 10.295 1.297 5.537 1.932 12.519 6.159 16.487l7.333 6.882c4.391 4.121 5.497 10.398 2.781 15.772-7.072 13.991-6.546 11.008-4.686 26.575.715 5.979-2.473 11.499-8.008 13.87-14.411 6.172-12.091 4.225-20.672 17.345-3.296 5.039-9.285 7.22-15.049 5.478-15.007-4.535-11.978-4.535-26.985 0-5.764 1.742-11.754-.438-15.05-5.478-8.581-13.12-6.26-11.173-20.671-17.345-5.535-2.371-8.723-7.891-8.008-13.87 1.861-15.566 2.386-12.584-4.686-26.575-2.716-5.374-1.61-11.652 2.781-15.772 11.431-10.729 9.916-8.105 13.492-23.369 1.373-5.863 6.256-9.96 12.269-10.295 15.653-.871 12.807.165 25.357-9.229 4.822-3.608 11.197-3.608 16.017 0z" opacity="1" data-original="#ffe177"></path><path fill="#ffd064" d="M170.892 311.199c12.551 9.394 9.704 8.358 25.357 9.229 6.012.334 10.896 4.432 12.269 10.295 1.297 5.537 1.932 12.519 6.159 16.487l7.333 6.882c4.391 4.121 5.497 10.398 2.781 15.772-7.072 13.991-6.546 11.008-4.686 26.574.715 5.979-2.473 11.5-8.008 13.87-14.411 6.172-12.091 4.225-20.671 17.345-3.199 4.891-8.935 7.088-14.54 5.621 3.07-.825 5.807-2.763 7.676-5.621 8.581-13.12 6.26-11.174 20.671-17.345 5.536-2.371 8.723-7.891 8.008-13.87-1.861-15.566-2.387-12.583 4.686-26.574 2.716-5.374 1.609-11.652-2.781-15.772l-7.333-6.882c-4.228-3.968-4.863-10.95-6.16-16.487-1.373-5.863-6.257-9.96-12.269-10.295-15.653-.871-12.807.165-25.357-9.229a13.572 13.572 0 0 0-4.576-2.247c3.86-1.049 8.038-.3 11.441 2.247zM159.453 430.17c-4.857-1.105-6.729-.118-16.924 2.963-.169.051-.34.099-.51.144 2.342.629 4.879.61 7.373-.144 4.812-1.455 7.768-2.442 10.061-2.963z" opacity="1" data-original="#ffd064"></path><circle cx="162.885" cy="371.109" r="29.595" fill="#eceff1" transform="rotate(-9.25 162.825 371.617)" opacity="1" data-original="#eceff1"></circle><path fill="#d1d1d6" d="M162.885 341.514c.796 0 1.585.032 2.365.094-15.239 1.205-27.23 13.952-27.23 29.501s11.991 28.296 27.23 29.501c-.78.062-1.569.094-2.365.094-16.345 0-29.595-13.25-29.595-29.595s13.25-29.595 29.595-29.595z" opacity="1" data-original="#d1d1d6"></path><circle cx="162.885" cy="99.333" r="50" fill="#ffc338" transform="rotate(-45 162.88 99.37)" opacity="1" data-original="#ffc338"></circle><path fill="#f5b829" d="M162.885 49.333c27.614 0 50 22.386 50 50s-22.386 50-50 50c-1.442 0-2.869-.065-4.28-.185 25.61-2.172 45.719-23.644 45.719-49.815s-20.11-47.644-45.719-49.815a50.485 50.485 0 0 1 4.28-.185z" opacity="1" data-original="#f5b829"></path><path fill="#ffe177" d="M184.98 81.051a7.998 7.998 0 0 1-14.75 6.188c-.981-2.337-2.839-3.685-4.878-4.202a9.724 9.724 0 0 0-4.28-.113c-1.271.256-2.42.756-3.292 1.464-.83.675-1.357 1.635-1.3 2.81.043.888.554 1.528 1.267 1.994 1.642 1.072 4.09 1.697 6.463 2.087 4.281.703 8.983 1.893 13.012 4.325 4.96 2.995 8.704 7.518 9.552 14.497.059.485.097 1.121.115 1.898.155 6.507-2.793 11.34-7.225 14.702-2.581 1.959-5.644 3.331-8.781 4.169v.103a8 8 0 0 1-16 0v-.273c-2.365-.709-4.614-1.739-6.64-3.088-4.376-2.914-7.729-7.22-9.15-12.923a7.981 7.981 0 0 1 15.5-3.812c.371 1.488 1.275 2.631 2.463 3.423 1.718 1.144 3.973 1.688 6.293 1.633.331-.008.827-.052 1.49-.132 2.003-.243 3.935-.828 5.2-1.787.556-.422.928-.971.912-1.64-.001-.031-.017-.099-.053-.398-.147-1.216-.908-2.07-1.926-2.684-1.951-1.178-4.706-1.833-7.324-2.263-4.181-.686-8.755-1.959-12.588-4.462-4.762-3.108-8.183-7.721-8.517-14.619-.329-6.774 2.583-12.201 7.175-15.935 2.092-1.701 4.539-3.013 7.166-3.896v-.424a8 8 0 0 1 16 0v.324c5.936 1.947 11.212 6.163 14.096 13.034z" opacity="1" data-original="#ffe177"></path><circle cx="162.885" cy="225.998" r="52.83" fill="#8ac9fe" transform="rotate(-45 162.856 226.045)" opacity="1" data-original="#8ac9fe"></circle><path fill="#60b7ff" d="M162.885 173.168c29.177 0 52.83 23.653 52.83 52.83s-23.653 52.83-52.83 52.83c-1.524 0-3.031-.068-4.523-.195 27.059-2.295 48.307-24.982 48.307-52.635s-21.248-50.34-48.307-52.635a53.688 53.688 0 0 1 4.523-.195z" opacity="1" data-original="#60b7ff"></path><circle cx="162.885" cy="225.998" r="40.163" fill="#eceff1" opacity="1" data-original="#eceff1"></circle><path fill="#d1d1d6" d="M162.885 185.835c1.107 0 2.203.047 3.288.135-20.643 1.673-36.875 18.954-36.875 40.029 0 21.074 16.232 38.355 36.875 40.028a40.653 40.653 0 0 1-3.288.135c-22.182 0-40.163-17.982-40.163-40.163 0-22.182 17.981-40.164 40.163-40.164z" opacity="1" data-original="#d1d1d6"></path><path fill="#a79ba7" d="M154.885 194.61a8 8 0 0 1 16 0v26.791l18.715 10.805a7.981 7.981 0 0 1-8 13.812l-22.212-12.824a8 8 0 0 1-4.503-7.197z" opacity="1" data-original="#a79ba7"></path></g></g></svg>