<svg xmlns="http://www.w3.org/2000/svg" version="1.1" xmlns:xlink="http://www.w3.org/1999/xlink" width="512" height="512" x="0" y="0" viewBox="0 0 52 52" style="enable-background:new 0 0 512 512" xml:space="preserve" class=""><g><path fill="#ffd06c" d="m43.18 36.857-21.93 12.67-19.18-11.15L2 15.137l21.93-12.66 19.18 11.14z" opacity="1" data-original="#ffd06c" class=""></path><path fill="#f9a83d" d="M2 15.137 21.18 26.282l.071 23.241L2.072 38.378z" opacity="1" data-original="#f9a83d" class=""></path><path fill="#ffd06c" d="M43.113 13.618 21.179 26.282 2 15.137 23.934 2.473z" opacity="1" data-original="#ffd06c" class=""></path><path fill="#febc1f" d="m43.113 13.618.071 23.241L21.25 49.523l-.071-23.241z" opacity="1" data-original="#febc1f"></path><path fill="#4c5c75" d="m35.61 41.227-6.18 3.62-.34-23.13-19.18-11.15 6.18-3.57 19.18 11.15z" opacity="1" data-original="#4c5c75"></path><path fill="#4c5c75" d="m9.912 10.568 6.182-3.569 19.178 11.145-6.181 3.57z" opacity="1" data-original="#4c5c75"></path><path fill="#1d2943" d="m29.09 21.713.342 23.134 6.181-3.617-.34-23.086z" opacity="1" data-original="#1d2943"></path><path fill="#111d33" d="m12.638 8.994.73-.421 19.179 11.145-.73.422z" opacity="1" data-original="#111d33"></path><path fill="#1d2943" d="m16.028 43.684-.001.511 3.028 1.748.001-.51zM18.37 41.988l-.665.628.456.263-.005 1.721.424.245.005-1.721.445.256zM16.732 41.042l-.665.628.445.257-.005 1.72.423.245.005-1.72.456.262zM11.54 39.73l-.028 1.34c0 .258.2.6.428.743.228.114.428.029.428-.228 0-.086-.057-.143-.085-.172-.058-.028-.086 0-.086.058 0 .142-.114.2-.257.114-.143-.057-.228-.257-.228-.4v-1.37l1.199.713c0-.742-.486-1.684-1.114-2.112v-.114c0-.115-.085-.229-.171-.286-.086-.028-.172 0-.172.114v.115a.7.7 0 0 0-.742-.029c-.228.114-.371.4-.371.828z" opacity="1" data-original="#1d2943"></path><path fill="#1d2943" d="m19.469 46.883-3.982-2.298a.117.117 0 0 1-.057-.1l.013-4.57c0-.04.022-.078.057-.1a.119.119 0 0 1 .114 0l3.981 2.3c.035.02.058.058.058.098l-.013 4.571c0 .04-.022.078-.057.1-.018.01-.038.015-.057.015s-.04-.006-.057-.016zm-3.798-6.77-.012 4.307 3.752 2.166.013-4.307zM13.552 43.468l-3.98-2.299a.117.117 0 0 1-.058-.099l.013-4.57c0-.04.022-.079.057-.1a.119.119 0 0 1 .114 0l3.983 2.3c.035.02.057.058.057.098l-.014 4.571c0 .04-.022.078-.057.1a.121.121 0 0 1-.057.014.121.121 0 0 1-.058-.015zm-3.797-6.77-.012 4.307 3.754 2.166.012-4.307zM7.636 40.053l-3.98-2.299a.117.117 0 0 1-.058-.099l.014-4.57c0-.041.022-.079.057-.1a.119.119 0 0 1 .114 0l3.982 2.299c.035.02.057.059.057.099l-.014 4.57c0 .041-.022.079-.057.1a.121.121 0 0 1-.057.015.121.121 0 0 1-.058-.015zm-3.797-6.77-.012 4.307 3.754 2.166.012-4.308z" opacity="1" data-original="#1d2943"></path><path fill="#1d2943" d="m4.79 34.354-.003 1.238c-.001.519.324 1.138.753 1.476l-.002.883-.223-.128c-.085-.05-.154-.01-.154.088 0 .097.068.215.153.264l.777.448c.084.05.153.01.153-.086a.337.337 0 0 0-.152-.266l-.223-.128.003-.884c.188.07.356.063.485-.012.167-.095.271-.3.272-.592l.004-1.237z" opacity="1" data-original="#1d2943"></path><path fill="#e9e7fc" d="M43.754 37.85c1.095-.779 2.096-1.85 2.918-3.068l1.087.632c-.822 1.217-1.823 2.289-2.918 3.069l-1.087-.632zM39.432 38.957c.827.265 1.83.18 2.925-.301l1.087.631c-1.094.482-2.098.567-2.925.302l-1.087-.632z" opacity="1" data-original="#e9e7fc"></path><path fill="#f45170" d="m49.47 40.767-1.92.1-1.09 2.69-1.5-.87-1.21-4.84 1.09.64c1.1-.78 2.1-1.86 2.92-3.07z" opacity="1" data-original="#f45170" class=""></path><path fill="#e93565" d="m46.462 43.562-1.498-.87-1.21-4.841 1.087.632z" opacity="1" data-original="#e93565" class=""></path><path fill="#f45170" d="m47.76 35.414 1.707 5.353-1.918.098-1.087 2.697-1.62-5.08c1.094-.779 2.095-1.85 2.917-3.068zM43.44 39.287l-1.58 6.93-1.09-.63-.34-.44-1.58 1.75-1.5-.87 1.67-7.31 1.5.87c.83.27 1.83.18 2.92-.3z" opacity="1" data-original="#f45170" class=""></path><path fill="#df3260" d="m41.858 46.22-1.087-.632-1.1-1.434 1.088.632z" opacity="1" data-original="#df3260"></path><path fill="#f45170" d="M40.52 39.589c.826.265 1.83.18 2.924-.302l-1.586 6.933-1.1-1.434-1.912 2.113z" opacity="1" data-original="#f45170" class=""></path><path fill="#e93565" d="m38.846 46.899-1.497-.87 1.673-7.31 1.497.87z" opacity="1" data-original="#e93565" class=""></path><path fill="#497bfe" d="M50 28.797c.01 2.16-.87 4.59-2.24 6.62-.82 1.21-1.82 2.29-2.92 3.07-.22.16-.46.31-.69.44-.24.14-.47.26-.71.36-1.09.48-2.09.57-2.92.3-.21-.07-.41-.16-.59-.27-.05-.02-.09-.05-.13-.08l-1.34-.77c-1.05-.61-1.71-1.91-1.71-3.75-.01-3.74 2.62-8.29 5.86-10.16 1.64-.94 3.11-1.03 4.18-.41l1.49.87a.89.89 0 0 0-.17-.08c1.16.56 1.88 1.91 1.89 3.86z" opacity="1" data-original="#497bfe"></path><path fill="#497bfe" d="M48.283 25.02c-1.065-.618-2.538-.533-4.173.408-3.246 1.874-5.876 6.424-5.86 10.157 0 1.843.655 3.147 1.711 3.756l-1.498-.871c-1.056-.61-1.712-1.913-1.712-3.756-.015-3.733 2.615-8.283 5.862-10.157 1.635-.941 3.108-1.026 4.172-.409z" opacity="1" data-original="#497bfe"></path><path fill="#57b3fe" d="M44.112 25.428c3.245-1.873 5.878-.361 5.888 3.367.007 2.159-.87 4.59-2.24 6.619-.823 1.217-1.824 2.289-2.919 3.069a8.64 8.64 0 0 1-.69.445 7.267 7.267 0 0 1-.707.36c-1.094.481-2.098.566-2.925.3-1.378-.44-2.266-1.851-2.272-4.007-.01-3.728 2.615-8.276 5.865-10.153z" opacity="1" data-original="#57b3fe"></path><path fill="#ffffff" d="M44.113 26.728c2.609-1.507 4.746-.289 4.754 2.72.009 3.002-2.114 6.675-4.723 8.181-2.618 1.511-4.755.299-4.764-2.704-.008-3.008 2.115-6.686 4.733-8.197z" opacity="1" data-original="#ffffff"></path><path fill="#f45170" d="M46.977 28.61c.046.231-.046.44-.128.602-.023.058-.058.105-.08.151l-2.922 5.077c-.104.197-.22.382-.347.568l-.035.035c-.104.15-.232.324-.429.359-.012.012-.035.012-.058.012-.127 0-.255-.07-.348-.128l-1.066-.614c-.081-.047-.186-.105-.243-.197-.07-.105-.082-.255-.035-.44.058-.198.162-.383.301-.534.093-.093.244-.209.417-.209h.024c.116 0 .22.058.3.116l.766.43.464-.8 2.19-3.79c.128-.221.232-.418.371-.604.081-.104.174-.22.29-.29.127-.057.313-.08.44.024.082.07.116.162.128.232z" opacity="1" data-original="#f45170" class=""></path></g></svg>