<svg xmlns="http://www.w3.org/2000/svg" version="1.1" xmlns:xlink="http://www.w3.org/1999/xlink" width="512" height="512" x="0" y="0" viewBox="0 0 60 60" style="enable-background:new 0 0 512 512" xml:space="preserve" class=""><g><path fill="#d5e4ef" d="M10 13h46.154a2.844 2.844 0 0 1 2.719 3.678l-6.288 20.489a2.844 2.844 0 0 1-2.57 2.006L15 41z" opacity="1" data-original="#d5e4ef" class=""></path><circle cx="22" cy="54" r="5" fill="#262a33" opacity="1" data-original="#262a33"></circle><circle cx="44" cy="54" r="5" fill="#262a33" opacity="1" data-original="#262a33"></circle><path fill="#b9c9d6" d="M46 32H19.605a1 1 0 0 1 0-2H46a1 1 0 0 1 0 2z" opacity="1" data-original="#b9c9d6"></path><path fill="#2473ff" d="M48 31.41A1.526 1.526 0 0 1 46.5 33a1.5 1.5 0 0 1-1.45-1.18C44.14 27.72 40.16 15 27 15v2.09a1.867 1.867 0 0 1-3.079 1.43l-8.27-7.12a1.861 1.861 0 0 1 0-2.829l8.27-7.12A1.867 1.867 0 0 1 27 2.882V5c11.3 0 20.52 7.081 21 26.41z" opacity="1" data-original="#2473ff"></path><path fill="#b9c9d6" d="M52 50H14.491a3.49 3.49 0 0 1-2.959-5.339l2.416-3.861L8.093 8H1a1 1 0 0 1 0-2h7.093a2 2 0 0 1 1.969 1.649l5.922 33.175a1 1 0 0 1-.136.706l-2.619 4.192A1.489 1.489 0 0 0 14.491 48H52a1 1 0 0 1 0 2z" opacity="1" data-original="#b9c9d6"></path></g></svg>