<svg xmlns="http://www.w3.org/2000/svg" version="1.1" xmlns:xlink="http://www.w3.org/1999/xlink" width="512" height="512" x="0" y="0" viewBox="0 0 512 512" style="enable-background:new 0 0 512 512" xml:space="preserve" class=""><g><g fill-rule="evenodd" clip-rule="evenodd"><path fill="#e6e7e7" d="M17 93.57v362.39c0 7.41 6.03 13.43 13.43 13.43h240.56c7.41 0 13.43-6.02 13.43-13.43v-27.13l-63.38 7.93c-2.15.27-4.29-.65-5.58-2.4a6.02 6.02 0 0 1-.62-6.04l33.14-72.53c-6.97-16.55-10.51-34.12-10.51-52.25 0-40.8 18.22-77.41 46.95-102.15V73.97c0-12.32 5.17-23.46 13.45-31.36H67.96C39.86 42.61 17 65.47 17 93.57zm181.28 322.56h-78.17c-3.31 0-6-2.69-6-6 0-3.32 2.69-6 6-6h78.17c3.32 0 6 2.68 6 6 0 3.31-2.68 6-6 6zm-99.11-4.84c0 14.39-11.71 26.11-26.1 26.11-14.4 0-26.11-11.72-26.11-26.11 0-14.4 11.71-26.11 26.11-26.11 14.39 0 26.1 11.71 26.1 26.11zm20.94-69.59c-3.31 0-6-2.68-6-6 0-3.31 2.69-6 6-6h98.04c3.32 0 6 2.69 6 6 0 3.32-2.68 6-6 6zm0-74.42c-3.31 0-6-2.69-6-6s2.69-6 6-6H220.6c3.31 0 6 2.69 6 6s-2.69 6-6 6zm0-74.43c-3.31 0-6-2.68-6-6 0-3.31 2.69-6 6-6h135.45c3.31 0 6 2.69 6 6 0 3.32-2.69 6-6 6zM73.07 362.97c-14.4 0-26.11-11.71-26.11-26.1 0-14.4 11.71-26.11 26.11-26.11 14.39 0 26.1 11.71 26.1 26.11 0 14.39-11.71 26.1-26.1 26.1zm0-74.42c-14.4 0-26.11-11.71-26.11-26.11 0-14.39 11.71-26.11 26.11-26.11 14.39 0 26.1 11.72 26.1 26.11 0 14.4-11.71 26.11-26.1 26.11zm0-74.42c-14.4 0-26.11-11.72-26.11-26.11 0-14.4 11.71-26.11 26.11-26.11 14.39 0 26.1 11.71 26.1 26.11 0 14.39-11.71 26.11-26.1 26.11zm47.04-95.7c-3.31 0-6-2.69-6-6s2.69-6 6-6h135.45c3.31 0 6 2.69 6 6s-2.69 6-6 6zM73.07 139.7c-14.4 0-26.11-11.71-26.11-26.11 0-14.39 11.71-26.1 26.11-26.1 14.39 0 26.1 11.71 26.1 26.1 0 14.4-11.71 26.11-26.1 26.11z" opacity="1" data-original="#e6e7e7" class=""></path><g fill="#6eceec"><path d="M73.07 397.18c-7.78 0-14.11 6.33-14.11 14.11s6.33 14.11 14.11 14.11 14.1-6.33 14.1-14.11-6.32-14.11-14.1-14.11zM58.96 336.87c0 7.77 6.33 14.1 14.11 14.1s14.1-6.33 14.1-14.1c0-7.78-6.32-14.11-14.1-14.11s-14.11 6.33-14.11 14.11zM58.96 262.44c0 7.78 6.33 14.11 14.11 14.11s14.1-6.33 14.1-14.11-6.32-14.11-14.1-14.11-14.11 6.33-14.11 14.11zM58.96 188.02c0 7.78 6.33 14.11 14.11 14.11s14.1-6.33 14.1-14.11-6.32-14.11-14.1-14.11-14.11 6.33-14.11 14.11zM58.96 113.59c0 7.78 6.33 14.11 14.11 14.11s14.1-6.33 14.1-14.11c0-7.77-6.32-14.1-14.1-14.1s-14.11 6.33-14.11 14.1z" fill="#6eceec" opacity="1" data-original="#6eceec"></path></g><path fill="#fcd770" d="M372.24 180.77c-67.7 0-122.77 55.07-122.77 122.77 0 17.36 3.55 34.14 10.56 49.88.7 1.57.69 3.37-.02 4.93l-29.78 65.17 84.1-10.53c.25-.03.5-.05.75-.05.92 0 1.83.22 2.67.63 17.02 8.45 35.36 12.73 54.49 12.73 67.69 0 122.76-55.07 122.76-122.76 0-67.7-55.07-122.77-122.76-122.77zm-54.74 78.75h118.13c1.89 0 3.66.89 4.8 2.4a6.003 6.003 0 0 1 .95 5.28l-20.39 69.68a6 6 0 0 1-5.76 4.32h-81.84c-.1 0-.2-.02-.3-.03-.17.01-.35.03-.52.03-3.09 0-5.61 2.51-5.61 5.6s2.52 5.61 5.61 5.61h82.66c3.32 0 6 2.68 6 6 0 3.31-2.68 6-6 6h-5.93c2.59 2.97 4.18 6.85 4.18 11.1 0 9.35-7.61 16.96-16.95 16.96-9.35 0-16.95-7.61-16.95-16.96 0-4.25 1.58-8.13 4.17-11.1h-18.87c2.59 2.97 4.17 6.85 4.17 11.1 0 9.35-7.6 16.96-16.95 16.96-9.34 0-16.95-7.61-16.95-16.96 0-4.25 1.59-8.13 4.18-11.1h-6.76c-9.71 0-17.61-7.9-17.61-17.61 0-7.3 4.48-13.58 10.83-16.24l-18.54-63.36h-.01l-3.63-12.42h-15.7c-3.31 0-6-2.69-6-6 0-3.32 2.69-6 6-6h20.19c2.67 0 5.01 1.75 5.76 4.31z" opacity="1" data-original="#fcd770"></path><path fill="#fc6e51" d="M427.62 271.52H321.01l16.88 57.68h72.85zM401.48 375.51c0-2.72-2.22-4.95-4.95-4.95s-4.95 2.23-4.95 4.95c0 2.73 2.22 4.96 4.95 4.96s4.95-2.23 4.95-4.96zM352.1 380.47c2.73 0 4.95-2.23 4.95-4.96 0-2.72-2.22-4.95-4.95-4.95s-4.95 2.23-4.95 4.95c0 2.73 2.22 4.96 4.95 4.96z" opacity="1" data-original="#fc6e51"></path><path fill="#999999" d="M296.42 129.75h62.73V73.97c0-17.29-14.07-31.36-31.36-31.36-17.3 0-31.37 14.07-31.37 31.36z" opacity="1" data-original="#999999"></path></g></g></svg>