<svg xmlns="http://www.w3.org/2000/svg" version="1.1" xmlns:xlink="http://www.w3.org/1999/xlink" width="512" height="512" x="0" y="0" viewBox="0 0 60 60" style="enable-background:new 0 0 512 512" xml:space="preserve" class=""><g><path fill="#d5d8db" d="M12 2v21H2a1 1 0 0 1-1-1V6a4.855 4.855 0 0 1 5-5h1z" opacity="1" data-original="#d5d8db" class=""></path><path fill="#f0f1f2" d="M49 6v27.35L33.6 49.91l-3.06 1.93a.987.987 0 0 1-1.07 0l-3.67-2.32a.987.987 0 0 0-1.07 0l-3.69 2.33a1.011 1.011 0 0 1-1.06 0l-3.69-2.33a.987.987 0 0 0-1.07 0l-2.69 1.69a.992.992 0 0 1-1.53-.84V6.21a5.147 5.147 0 0 0-4.51-5.19A3.854 3.854 0 0 0 6.01 1H44a5 5 0 0 1 5 5z" opacity="1" data-original="#f0f1f2" class=""></path><circle cx="46" cy="46" r="13" fill="#50ad80" opacity="1" data-original="#50ad80"></circle><path fill="#505068" d="M44 22H16a1 1 0 0 1 0-2h28a1 1 0 0 1 0 2zM30 42H16a1 1 0 0 1 0-2h14a1 1 0 0 1 0 2z" opacity="1" data-original="#505068"></path><g fill="#b5b8bc"><path d="M19 27h-3a1 1 0 0 1 0-2h3a1 1 0 0 1 0 2zM40 27H23a1 1 0 0 1 0-2h17a1 1 0 0 1 0 2zM19 32h-3a1 1 0 0 1 0-2h3a1 1 0 0 1 0 2zM39 32H23a1 1 0 0 1 0-2h16a1 1 0 0 1 0 2zM19 37h-3a1 1 0 0 1 0-2h3a1 1 0 0 1 0 2zM33 37H23a1 1 0 0 1 0-2h10a1 1 0 0 1 0 2z" fill="#b5b8bc" opacity="1" data-original="#b5b8bc"></path></g><path fill="#50ad80" d="M22 13a3 3 0 0 0-3-3 1 1 0 1 1 .867-1.5 1 1 0 0 0 1.731-1A2.993 2.993 0 0 0 20 6.2V6a1 1 0 0 0-2 0v.184A2.993 2.993 0 0 0 19 12a1 1 0 1 1-.867 1.5 1 1 0 0 0-1.731 1 2.993 2.993 0 0 0 1.6 1.3v.2a1 1 0 0 0 2 0v-.184A3 3 0 0 0 22 13z" opacity="1" data-original="#50ad80"></path><path fill="#b5b8bc" d="M35 12h-9a1 1 0 0 1 0-2h9a1 1 0 0 1 0 2zM44 17H26a1 1 0 0 1 0-2h18a1 1 0 0 1 0 2z" opacity="1" data-original="#b5b8bc"></path><path fill="#ffffff" d="M44 52a1 1 0 0 1-.707-.293l-3-3a1 1 0 0 1 1.414-1.414l2.157 2.157 6.317-9.023a1 1 0 1 1 1.638 1.146l-7 10a1 1 0 0 1-.732.423A.844.844 0 0 1 44 52z" opacity="1" data-original="#ffffff"></path></g></svg>