<svg xmlns="http://www.w3.org/2000/svg" version="1.1" xmlns:xlink="http://www.w3.org/1999/xlink" width="512" height="512" x="0" y="0" viewBox="0 0 682.667 682.667" style="enable-background:new 0 0 512 512" xml:space="preserve" class=""><g><defs><clipPath id="a" clipPathUnits="userSpaceOnUse"><path d="M0 512h512V0H0Z" fill="#000000" opacity="1" data-original="#000000"></path></clipPath></defs><g clip-path="url(#a)" transform="matrix(1.33333 0 0 -1.33333 0 682.667)"><path d="m0 0-17.478 48.287h-65.077L-100.032 0a15.002 15.002 0 0 1 .471-11.362l35.913-78.242a14.999 14.999 0 0 1 27.265 0L-.472-11.362A14.998 14.998 0 0 1 0 0" style="fill-opacity:1;fill-rule:nonzero;stroke:none" transform="translate(511.104 98.347)" fill="#f4f1f1" data-original="#f4f1f1" class=""></path><path d="m0 0-17.478 48.287h-32.537V-98.347a14.999 14.999 0 0 1 13.632 8.743L-.472-11.362A14.998 14.998 0 0 1 0 0" style="fill-opacity:1;fill-rule:nonzero;stroke:none" transform="translate(511.104 98.347)" fill="#e7dfdd" data-original="#e7dfdd" class=""></path><path d="M0 0h-351.03c-8.284 0-15-6.716-15-15v-482c0-8.284 6.716-15 15-15H0c8.284 0 15 6.716 15 15v482C15-6.716 8.284 0 0 0" style="fill-opacity:1;fill-rule:nonzero;stroke:none" transform="translate(366.03 512)" fill="#f4f1f1" data-original="#f4f1f1" class=""></path><path d="M0 0h-175.515v-512H0c8.284 0 15 6.716 15 15v482C15-6.716 8.284 0 0 0" style="fill-opacity:1;fill-rule:nonzero;stroke:none" transform="translate(366.03 512)" fill="#e7dfdd" data-original="#e7dfdd" class=""></path><path d="M0 0h-95.259c-8.284 0-15 6.716-15 15 0 8.284 6.716 15 15 15H0c8.284 0 15-6.716 15-15C15 6.716 8.284 0 0 0" style="fill-opacity:1;fill-rule:nonzero;stroke:none" transform="translate(333.402 368.32)" fill="#38336b" data-original="#38336b"></path><path d="M0 0h-95.259c-8.284 0-15 6.716-15 15 0 8.284 6.716 15 15 15H0c8.284 0 15-6.716 15-15C15 6.716 8.284 0 0 0" style="fill-opacity:1;fill-rule:nonzero;stroke:none" transform="translate(333.402 277.316)" fill="#38336b" data-original="#38336b"></path><path d="M0 0h-95.259c-8.284 0-15 6.716-15 15 0 8.284 6.716 15 15 15H0c8.284 0 15-6.716 15-15C15 6.716 8.284 0 0 0" style="fill-opacity:1;fill-rule:nonzero;stroke:none" transform="translate(333.402 186.311)" fill="#38336b" data-original="#38336b"></path><path d="M0 0h-95.259c-8.284 0-15 6.716-15 15 0 8.284 6.716 15 15 15H0c8.284 0 15-6.716 15-15C15 6.716 8.284 0 0 0" style="fill-opacity:1;fill-rule:nonzero;stroke:none" transform="translate(333.402 91.822)" fill="#38336b" data-original="#38336b"></path><path d="M0 0c-3.979 0-7.794 1.58-10.606 4.394l-21.473 21.473c-5.859 5.858-5.859 15.355 0 21.213 5.858 5.858 15.356 5.858 21.213 0L0 36.213l34.956 34.956c5.857 5.858 15.356 5.858 21.213 0 5.858-5.858 5.858-15.355 0-21.213L10.606 4.393A15 15 0 0 0 0 0" style="fill-opacity:1;fill-rule:nonzero;stroke:none" transform="translate(84.308 350.41)" fill="#90d960" data-original="#90d960"></path><path d="M0 0c-3.979 0-7.794 1.58-10.606 4.394l-21.473 21.473c-5.859 5.858-5.859 15.355 0 21.213 5.858 5.858 15.356 5.858 21.213 0L0 36.213l34.956 34.956c5.857 5.858 15.356 5.858 21.213 0 5.858-5.858 5.858-15.355 0-21.213L10.606 4.393A15 15 0 0 0 0 0" style="fill-opacity:1;fill-rule:nonzero;stroke:none" transform="translate(84.308 259.405)" fill="#90d960" data-original="#90d960"></path><path d="M0 0c-3.979 0-7.794 1.58-10.606 4.394l-21.473 21.473c-5.859 5.858-5.859 15.355 0 21.213 5.858 5.858 15.356 5.858 21.213 0L0 36.213l34.956 34.956c5.857 5.857 15.356 5.858 21.213 0 5.858-5.858 5.858-15.356 0-21.213L10.606 4.393A15 15 0 0 0 0 0" style="fill-opacity:1;fill-rule:nonzero;stroke:none" transform="translate(84.308 168.4)" fill="#90d960" data-original="#90d960"></path><path d="M0 0v-312.59c0-8.29-6.72-15-15-15h-71.82c-8.289 0-15 6.71-15 15V0c0 28.07 22.84 50.91 50.91 50.91C-22.84 50.91 0 28.07 0 0" style="fill-opacity:1;fill-rule:nonzero;stroke:none" transform="translate(512 461.09)" fill="#ffda2c" data-original="#ffda2c"></path><path d="M0 0v-378.5h35.91c8.28 0 15 6.71 15 15v312.59C50.91-22.84 28.07 0 0 0" style="fill-opacity:1;fill-rule:nonzero;stroke:none" transform="translate(461.09 512)" fill="#febf00" data-original="#febf00"></path><path d="M512 387.09H410.18v30H512Z" style="fill-opacity:1;fill-rule:nonzero;stroke:none" fill="#d20041" data-original="#d20041"></path><path d="M512 417.09h-50.91v-30H512Z" style="fill-opacity:1;fill-rule:nonzero;stroke:none" fill="#ba003a" data-original="#ba003a"></path></g></g></svg>