<svg xmlns="http://www.w3.org/2000/svg" version="1.1" xmlns:xlink="http://www.w3.org/1999/xlink" width="512" height="512" x="0" y="0" viewBox="0 0 682.667 682.667" style="enable-background:new 0 0 512 512" xml:space="preserve" class=""><g><defs><clipPath id="a" clipPathUnits="userSpaceOnUse"><path d="M0 512h512V0H0Z" fill="#000000" opacity="1" data-original="#000000"></path></clipPath></defs><g clip-path="url(#a)" transform="matrix(1.33333 0 0 -1.33333 0 682.667)"><path d="M0 0h-337.207a3 3 0 0 0-3 3v448.011c0 1.656 1.344 3 3 3H0a3 3 0 0 0 3-3V3a3 3 0 0 0-3-3" style="fill-opacity:1;fill-rule:nonzero;stroke:none" transform="translate(376.688 50.49)" fill="#fac600" data-original="#fac600" class=""></path><path d="M0 0v448.011a3 3 0 0 0 3 3h-50.519c-1.656 0-3-1.344-3-3V0a3 3 0 0 1 3-3H3a3 3 0 0 0-3 3" style="fill-opacity:1;fill-rule:nonzero;stroke:none" transform="translate(87 53.49)" fill="#e8b801" data-original="#e8b801" class=""></path><path d="M0 0h-337.207a3 3 0 0 0-3 3v448.011c0 1.656 1.344 3 3 3H0a3 3 0 0 0 3-3V3a3 3 0 0 0-3-3Z" style="stroke-width:15;stroke-linecap:round;stroke-linejoin:round;stroke-miterlimit:10;stroke-dasharray:none;stroke-opacity:1" transform="translate(376.688 50.49)" fill="none" stroke="#000000" stroke-width="15" stroke-linecap="round" stroke-linejoin="round" stroke-miterlimit="10" stroke-dasharray="none" stroke-opacity="" data-original="#000000" class=""></path><path d="M0 0h-337.207a3 3 0 0 0-3 3v448.011a3 3 0 0 0 3 3H0a3 3 0 0 0 3-3V3a3 3 0 0 0-3-3" style="fill-opacity:1;fill-rule:nonzero;stroke:none" transform="translate(419.678 7.5)" fill="#fff3de" data-original="#fff3de"></path><path d="M0 0h195.359" style="stroke-width:15;stroke-linecap:round;stroke-linejoin:round;stroke-miterlimit:10;stroke-dasharray:none;stroke-opacity:1" transform="translate(153.394 339.206)" fill="none" stroke="#000000" stroke-width="15" stroke-linecap="round" stroke-linejoin="round" stroke-miterlimit="10" stroke-dasharray="none" stroke-opacity="" data-original="#000000" class=""></path><path d="M0 0h97.754" style="stroke-width:15;stroke-linecap:round;stroke-linejoin:round;stroke-miterlimit:10;stroke-dasharray:none;stroke-opacity:1" transform="translate(251 295.08)" fill="none" stroke="#000000" stroke-width="15" stroke-linecap="round" stroke-linejoin="round" stroke-miterlimit="10" stroke-dasharray="none" stroke-opacity="" data-original="#000000" class=""></path><path d="M0 0h69.605" style="stroke-width:15;stroke-linecap:round;stroke-linejoin:round;stroke-miterlimit:10;stroke-dasharray:none;stroke-opacity:1" transform="translate(153.394 295.08)" fill="none" stroke="#000000" stroke-width="15" stroke-linecap="round" stroke-linejoin="round" stroke-miterlimit="10" stroke-dasharray="none" stroke-opacity="" data-original="#000000" class=""></path><path d="M0 0h195.359" style="stroke-width:15;stroke-linecap:round;stroke-linejoin:round;stroke-miterlimit:10;stroke-dasharray:none;stroke-opacity:1" transform="translate(153.394 250.955)" fill="none" stroke="#000000" stroke-width="15" stroke-linecap="round" stroke-linejoin="round" stroke-miterlimit="10" stroke-dasharray="none" stroke-opacity="" data-original="#000000" class=""></path><path d="M0 0h195.359" style="stroke-width:15;stroke-linecap:round;stroke-linejoin:round;stroke-miterlimit:10;stroke-dasharray:none;stroke-opacity:1" transform="translate(153.394 206.83)" fill="none" stroke="#000000" stroke-width="15" stroke-linecap="round" stroke-linejoin="round" stroke-miterlimit="10" stroke-dasharray="none" stroke-opacity="" data-original="#000000" class=""></path><path d="M0 0h55.754" style="stroke-width:15;stroke-linecap:round;stroke-linejoin:round;stroke-miterlimit:10;stroke-dasharray:none;stroke-opacity:1" transform="translate(293 162.704)" fill="none" stroke="#000000" stroke-width="15" stroke-linecap="round" stroke-linejoin="round" stroke-miterlimit="10" stroke-dasharray="none" stroke-opacity="" data-original="#000000" class=""></path><path d="M0 0h111.605" style="stroke-width:15;stroke-linecap:round;stroke-linejoin:round;stroke-miterlimit:10;stroke-dasharray:none;stroke-opacity:1" transform="translate(153.394 162.704)" fill="none" stroke="#000000" stroke-width="15" stroke-linecap="round" stroke-linejoin="round" stroke-miterlimit="10" stroke-dasharray="none" stroke-opacity="" data-original="#000000" class=""></path><path d="M0 0h195.359" style="stroke-width:15;stroke-linecap:round;stroke-linejoin:round;stroke-miterlimit:10;stroke-dasharray:none;stroke-opacity:1" transform="translate(153.394 118.579)" fill="none" stroke="#000000" stroke-width="15" stroke-linecap="round" stroke-linejoin="round" stroke-miterlimit="10" stroke-dasharray="none" stroke-opacity="" data-original="#000000" class=""></path><path d="M0 0h195.359" style="stroke-width:15;stroke-linecap:round;stroke-linejoin:round;stroke-miterlimit:10;stroke-dasharray:none;stroke-opacity:1" transform="translate(153.394 74.453)" fill="none" stroke="#000000" stroke-width="15" stroke-linecap="round" stroke-linejoin="round" stroke-miterlimit="10" stroke-dasharray="none" stroke-opacity="" data-original="#000000" class=""></path><path d="M0 0v448.011a3 3 0 0 0 3 3h-42.322a3 3 0 0 1-3-3V0a3 3 0 0 1 3-3H3a3 3 0 0 0-3 3" style="fill-opacity:1;fill-rule:nonzero;stroke:none" transform="translate(121.793 10.5)" fill="#ffe5c2" data-original="#ffe5c2"></path><path d="M0 0h-73.529a3 3 0 0 1-3-3v-448.011a3 3 0 0 1 3-3h337.207a3 3 0 0 1 3 3V-3a3 3 0 0 1-3 3H35" style="stroke-width:15;stroke-linecap:round;stroke-linejoin:round;stroke-miterlimit:10;stroke-dasharray:none;stroke-opacity:1" transform="translate(156 461.51)" fill="none" stroke="#000000" stroke-width="15" stroke-linecap="round" stroke-linejoin="round" stroke-miterlimit="10" stroke-dasharray="none" stroke-opacity="" data-original="#000000" class=""></path><path d="M0 0h120.098" style="stroke-width:15;stroke-linecap:round;stroke-linejoin:round;stroke-miterlimit:10;stroke-dasharray:none;stroke-opacity:1" transform="translate(191.025 396.203)" fill="none" stroke="#000000" stroke-width="15" stroke-linecap="round" stroke-linejoin="round" stroke-miterlimit="10" stroke-dasharray="none" stroke-opacity="" data-original="#000000" class=""></path><path d="M0 0h-100.431c-2.76 0-5 2.239-5 5v100.431c0 2.761 2.24 5 5 5H0a5 5 0 0 0 5-5V5a5 5 0 0 0-5-5" style="fill-opacity:1;fill-rule:nonzero;stroke:none" transform="translate(444.988 58.973)" fill="#4fc123" data-original="#4fc123"></path><path d="M0 0v100.431a5 5 0 0 0 5 5h-33.442a5 5 0 0 1-5-5V0a5 5 0 0 1 5-5H5a5 5 0 0 0-5 5" style="fill-opacity:1;fill-rule:nonzero;stroke:none" transform="translate(373 63.973)" fill="#47a920" data-original="#47a920"></path><path d="M0 0h32.988a5 5 0 0 1 5 5v100.431a5 5 0 0 1-5 5h-100.43a5 5 0 0 1-5-5V5a5 5 0 0 1 5-5H-35" style="stroke-width:15;stroke-linecap:round;stroke-linejoin:round;stroke-miterlimit:10;stroke-dasharray:none;stroke-opacity:1" transform="translate(412 58.973)" fill="none" stroke="#000000" stroke-width="15" stroke-linecap="round" stroke-linejoin="round" stroke-miterlimit="10" stroke-dasharray="none" stroke-opacity="" data-original="#000000" class=""></path><path d="m0 0 32.276-32.276 74.215 74.214" style="stroke-width:15;stroke-linecap:round;stroke-linejoin:round;stroke-miterlimit:10;stroke-dasharray:none;stroke-opacity:1" transform="translate(369.027 128.06)" fill="none" stroke="#000000" stroke-width="15" stroke-linecap="round" stroke-linejoin="round" stroke-miterlimit="10" stroke-dasharray="none" stroke-opacity="" data-original="#000000" class=""></path><path d="M0 0h-100.431c-2.76 0-5 2.239-5 5v100.431c0 2.761 2.24 5 5 5H0a5 5 0 0 0 5-5V5a5 5 0 0 0-5-5" style="fill-opacity:1;fill-rule:nonzero;stroke:none" transform="translate(444.988 199.683)" fill="#4fc123" data-original="#4fc123"></path><path d="M0 0v100.431a5 5 0 0 0 5 5h-33.442a5 5 0 0 1-5-5V0a5 5 0 0 1 5-5H5a5 5 0 0 0-5 5" style="fill-opacity:1;fill-rule:nonzero;stroke:none" transform="translate(373 204.684)" fill="#47a920" data-original="#47a920"></path><path d="M0 0v53.114a5 5 0 0 1-5 5h-100.431c-2.76 0-5-2.239-5-5v-100.43a5 5 0 0 1 5-5H-5a5 5 0 0 1 5 5V-35" style="stroke-width:15;stroke-linecap:round;stroke-linejoin:round;stroke-miterlimit:10;stroke-dasharray:none;stroke-opacity:1" transform="translate(449.988 252)" fill="none" stroke="#000000" stroke-width="15" stroke-linecap="round" stroke-linejoin="round" stroke-miterlimit="10" stroke-dasharray="none" stroke-opacity="" data-original="#000000" class=""></path><path d="m0 0 32.276-32.276 74.215 74.214" style="stroke-width:15;stroke-linecap:round;stroke-linejoin:round;stroke-miterlimit:10;stroke-dasharray:none;stroke-opacity:1" transform="translate(369.027 268.77)" fill="none" stroke="#000000" stroke-width="15" stroke-linecap="round" stroke-linejoin="round" stroke-miterlimit="10" stroke-dasharray="none" stroke-opacity="" data-original="#000000" class=""></path></g></g></svg>