<svg xmlns="http://www.w3.org/2000/svg" version="1.1" xmlns:xlink="http://www.w3.org/1999/xlink" width="512" height="512" x="0" y="0" viewBox="0 0 8126 9140" style="enable-background:new 0 0 512 512" xml:space="preserve" fill-rule="evenodd" class=""><g><clipPath id="a"><path d="m4465 111 3259 1881c256 148 402 402 402 697v3762c0 296-146 550-402 697L4465 9030c-256 147-548 147-804 0L402 7148C146 7001 0 6747 0 6451V2689c0-295 146-549 402-697L3661 111c256-148 548-148 804 0z" fill="#000000" opacity="1" data-original="#000000"></path></clipPath><path fill="#b5e8c0" d="m4465 111 3259 1881c256 148 402 402 402 697v3762c0 296-146 550-402 697L4465 9030c-256 147-548 147-804 0L402 7148C146 7001 0 6747 0 6451V2689c0-295 146-549 402-697L3661 111c256-148 548-148 804 0z" opacity="1" data-original="#b5e8c0" class=""></path><g clip-path="url(#a)"><path fill="#f2e796" d="M162 3796h6263v5676H162z" opacity="1" data-original="#f2e796" class=""></path><path fill="#fcf3b3" d="M162 3796h6263v366H162z" opacity="1" data-original="#fcf3b3" class=""></path><path fill="#d4c979" d="M162 9205h6263v267H162z" opacity="1" data-original="#d4c979"></path><path fill="#fcf3b3" d="M2725 3796h1136v1266l-564-350-572 350z" opacity="1" data-original="#fcf3b3" class=""></path><path fill="#f2e796" d="M162 3796h6263l-1004-846H1166z" opacity="1" data-original="#f2e796" class=""></path><path fill="#fcf3b3" d="M2726 3796h1136l-226-846h-685z" opacity="1" data-original="#fcf3b3" class=""></path><g fill="#396182" fill-rule="nonzero"><path d="M162 3725h6263c39 0 71 32 71 71v5676c0 39-32 71-71 71H162c-39 0-71-32-71-71V3796c0-39 32-71 71-71zm6192 142H234v5534h6120z" fill="#396182" opacity="1" data-original="#396182" class=""></path><path d="M3790 3796c0-39 32-71 71-71 40 0 72 32 72 71v1266c0 40-32 72-72 72-16 0-30-6-42-15l-522-323-534 327c-34 20-78 10-98-24-7-11-11-24-11-37V3796c0-39 32-71 72-71 39 0 71 32 71 71v1139l463-284c22-13 51-14 74 0l456 283zM4573 8542c-39 0-71-32-71-71s32-71 71-71h778c40 0 72 32 72 71s-32 71-72 71z" fill="#396182" opacity="1" data-original="#396182" class=""></path><path d="M6471 3742c30 25 34 70 9 100-26 30-71 34-101 8l-983-828H1191l-983 828c-30 26-75 22-100-8s-22-75 8-100l999-841c13-14 31-22 51-22h4255c17 0 33 6 46 17z" fill="#396182" opacity="1" data-original="#396182" class=""></path><path d="M2882 2932c10-38 49-60 87-50s61 49 51 87l-226 845c-10 38-49 61-87 51s-60-49-50-87zm1049 846c10 38-13 77-51 87s-77-13-87-51l-225-845c-10-38 12-77 50-87s77 12 87 50zM3057 8150c40 0 72 32 72 72 0 39-32 71-72 71-338 0-645-137-867-359-221-222-359-528-359-867 0-338 138-645 359-867 222-222 529-359 867-359 339 0 645 137 867 359s359 529 359 867c0 40-32 72-71 72-40 0-72-32-72-72 0-299-121-570-317-766s-467-317-766-317-570 121-766 317-317 467-317 766 121 570 317 766 467 317 766 317z" fill="#396182" opacity="1" data-original="#396182" class=""></path><path d="M3401 6811c-37-15-54-57-39-93s56-54 93-39l727 299 441-733c21-34 65-45 98-24 34 20 45 64 25 98l-473 785c-18 29-55 42-88 29z" fill="#396182" opacity="1" data-original="#396182" class=""></path></g></g></g></svg>