<svg xmlns="http://www.w3.org/2000/svg" version="1.1" xmlns:xlink="http://www.w3.org/1999/xlink" width="512" height="512" x="0" y="0" viewBox="0 0 512 512" style="enable-background:new 0 0 512 512" xml:space="preserve" class=""><g><g fill-rule="evenodd" clip-rule="evenodd"><path fill="#ffcc00" d="M99.5 265.4h302.9v171.2H99.5z" opacity="1" data-original="#ffcc00"></path><path fill="#ffec91" d="M402.4 413.3V265.4H99.5v4.7c36.2 37.8 86.8 73.1 147.6 100.2 52.7 23.6 106.1 37.8 155.3 43z" opacity="1" data-original="#ffec91" class=""></path><path fill="#ffc3aa" d="M117.5 122.8h266.9c22.6 0 41.2 18.5 41.2 41.1s-18.5 41.2-41.2 41.2H117.5c-22.6 0-41.2-18.5-41.2-41.2 0-22.5 18.6-41.1 41.2-41.1z" opacity="1" data-original="#ffc3aa" class=""></path><path fill="#ff6666" d="M425.5 163.9c0 22.7-18.5 41.2-41.2 41.2H117.5c-22.6 0-41.2-18.5-41.2-41.2v-.1h349.2z" opacity="1" data-original="#ff6666" class=""></path><path fill="#ffc3aa" d="M111.3 205.1h279.3c19.2 0 35 15.7 35 35 0 19.2-15.7 35-35 35H111.3c-19.2 0-35-15.7-35-35 0-19.2 15.8-35 35-35z" opacity="1" data-original="#ffc3aa" class=""></path><path fill="#ff6666" d="M425.5 242c-1 18.4-16.3 33.1-34.9 33.1H111.3c-18.6 0-33.9-14.7-34.9-33.1zM220.3 430.3h63.9v-91.8c0-17.7-14.4-32.1-31.9-32.1s-31.9 14.5-31.9 32.1v91.8z" opacity="1" data-original="#ff6666" class=""></path><path fill="#cc9933" d="M142.8 315.2h40c8.4 0 15.2 6.8 15.2 15.2v22.3c0 8.4-6.8 15.2-15.2 15.2h-40c-8.4 0-15.2-6.8-15.2-15.2v-22.3c0-8.3 6.8-15.2 15.2-15.2zm176.3 0h40c8.4 0 15.2 6.8 15.2 15.2v22.3c0 8.4-6.9 15.2-15.2 15.2h-40c-8.4 0-15.3-6.8-15.3-15.2v-22.3c0-8.3 6.9-15.2 15.3-15.2z" opacity="1" data-original="#cc9933" class=""></path><path fill="#ffec91" d="M250.9 31c60 0 108.7 48.7 108.7 108.7s-48.7 108.7-108.7 108.7-108.7-48.7-108.7-108.7S190.9 31 250.9 31z" opacity="1" data-original="#ffec91" class=""></path><path fill="#ffc3aa" d="M80.3 430.3h351.5c10.6 0 19.3 8.7 19.3 19.3v12.1c0 10.6-8.7 19.3-19.3 19.3H80.3c-10.6 0-19.3-8.7-19.3-19.3v-12.1c0-10.6 8.7-19.3 19.3-19.3z" opacity="1" data-original="#ffc3aa" class=""></path><path fill="#ff6666" d="M451 454.6v7.1c0 10.6-8.7 19.3-19.3 19.3H80.3c-10.6 0-19.3-8.7-19.3-19.3v-7.1z" opacity="1" data-original="#ff6666" class=""></path><path fill="#cc9933" d="M199.9 79.6h102c6.9 0 12.6 5.7 12.6 12.6v94.9c0 6.9-5.7 12.6-12.6 12.6h-102c-7 0-12.6-5.7-12.6-12.6V92.3c0-7 5.7-12.7 12.6-12.7z" opacity="1" data-original="#cc9933" class=""></path><path fill="#dab46a" d="M199.9 79.6h102c6.9 0 12.6 5.7 12.6 12.6v80.6c-35.2 1.8-75.5-19.5-102.7-58-7.7-10.9-13.7-22.2-18.1-33.7 1.9-.9 4-1.5 6.2-1.5z" opacity="1" data-original="#dab46a"></path><path fill="#cc3366" d="M230 79.6h41.9V135L251 123.2 230 135z" opacity="1" data-original="#cc3366"></path></g><path fill="#ffffff" d="M212.8 177.1c-2.2 0-4-1.8-4-4s1.8-4 4-4h26.8c2.2 0 4 1.8 4 4s-1.8 4-4 4zm0-13c-2.2 0-4-1.8-4-4s1.8-4 4-4h13.4c2.2 0 4 1.8 4 4s-1.8 4-4 4z" opacity="1" data-original="#ffffff"></path></g></svg>